HIERARCHY
ROOT Hips
{
	OFFSET 0.00000 0.00000 0.00000
	CHANNELS 6 Xposition Yposition Zposition Yrotation Zrotation Xrotation 
	JOINT Lumbar
	{
		OFFSET 0 0 0
		CHANNELS 3 Zrotation Xrotation Yrotation
		JOINT Neck
		{
			OFFSET 0.00 0.2701 0.00
			CHANNELS 3 Zrotation Xrotation Yrotation
			End Site
			{
				OFFSET 0.00 0.1379 0.00
			}
		}
		JOINT RightShoulder
		{
			OFFSET 0.0119 0.2289 0.1181
			CHANNELS 3 Zrotation Xrotation Yrotation
			JOINT RightElbow
			{
				OFFSET 0.00 -0.1475 0.00
				CHANNELS 2 Zrotation Yrotation
				JOINT RightWrist
				{
					OFFSET 0.00 -0.1605 0.00
					CHANNELS 2 Zrotation Xrotation
					End Site
					{
						OFFSET 0.0040 -0.1068 0.0006
					}
				}
			}
		}
		JOINT LeftShoulder
		{
			OFFSET 0.0119 0.2289 -0.1181
			CHANNELS 3 Zrotation Xrotation Yrotation
			JOINT LeftElbow
			{
				OFFSET 0.00 -0.1475 0.00
				CHANNELS 2 Zrotation Yrotation
				JOINT LeftWrist
				{
					OFFSET 0.00 -0.1605 0.00
					CHANNELS 2 Zrotation Xrotation
					End Site
					{
						OFFSET 0.0040 -0.1068 -0.0006
					}
				}
			}
		}
	}
	JOINT RightHip
	{
		OFFSET 0.0316 -0.0424 0.0458
		CHANNELS 3 Zrotation Xrotation Yrotation
		JOINT RightKnee
		{
			OFFSET 0.00 -0.2438 0.00
			CHANNELS 1 Zrotation
			JOINT RightAnkle
			{
				OFFSET 0.00 -0.2449 0.00
				CHANNELS 3 Zrotation Xrotation Yrotation
				End Site
				{
					OFFSET 0.1237 -0.0542 0.0051
				}
			}
		}
	}
	JOINT LeftHip
	{
		OFFSET 0.0316 -0.0424 -0.0458
		CHANNELS 3 Zrotation Xrotation Yrotation
		JOINT LeftKnee
		{
			OFFSET 0.00 -0.2438 0.00
			CHANNELS 1 Zrotation
			JOINT LeftAnkle
			{
				OFFSET 0.00 -0.2449 0.00
				CHANNELS 3 Zrotation Xrotation Yrotation
				End Site
				{
					OFFSET 0.1237 -0.0542 -0.0051
				}
			}
		}
	}
}
MOTION
Frames: 16
Frame Time: 0.02
0.48375 0.06002 0.34544 152.39251 -26.64855 -11.60144 23.13499 2.94191 -26.77377 -7.63133 8.55863 -0.83079 20.0812 -43.65385 12.52828 122.69362 106.94447 -31.95154 -7.01787 55.28553 15.50015 -45.18379 93.83973 -107.91512 -30.09343 8.51836 41.87758 -4.86337 -8.3037 -16.14487 -14.76265 -4.04347 -3.18075 27.2713 -1.62146 13.00769 -35.53645 -7.96439 5.09006 3.42477
0.48456 0.06056 0.34323 150.72748 -26.25256 -11.81738 23.32907 2.97879 -26.55743 -7.69006 8.47931 -0.83079 19.65738 -43.28576 12.36264 122.85308 105.31672 -30.91357 -6.86604 54.85335 15.09286 -45.04686 94.03524 -108.00483 -30.07271 8.36661 41.81269 -5.46221 -6.17922 -18.91777 -14.46055 -4.54019 -3.46311 27.20891 -1.32737 13.08674 -35.70845 -8.10146 5.17958 3.48285
0.4852 0.06087 0.34061 149.11467 -26.25909 -12.13965 23.94156 3.09376 -26.36241 -7.73161 8.45245 -0.83079 19.08733 -42.79245 12.13989 123.07824 102.74726 -29.26628 -6.62863 54.18869 14.74456 -44.93427 94.34485 -108.16449 -30.06223 8.1112 42.14492 -5.93307 -4.9648 -21.56892 -14.41363 -4.52634 -3.45403 27.66408 -0.87775 13.05122 -36.1781 -8.21994 5.25279 3.533
0.48592 0.0613 0.33814 147.47857 -26.06873 -12.40718 24.34552 3.16946 -26.14774 -7.77929 8.40524 -0.83079 18.58396 -42.34773 11.94707 123.26863 100.78596 -27.99754 -6.44814 53.62916 14.37724 -44.81117 94.602 -108.2096 -29.99827 7.90451 42.27279 -6.47062 -3.38896 -24.2122 -14.25135 -4.74889 -3.58015 27.8615 -0.49619 13.072 -36.50711 -8.34732 5.33215 3.58596
0.48659 0.06167 0.33582 145.85225 -25.92388 -12.69443 24.81697 3.25847 -25.97284 -7.83456 8.34652 -0.83079 18.06692 -41.9265 11.74007 123.48012 98.10873 -26.32236 -6.19619 53.03385 13.96958 -44.66974 94.87066 -108.5568 -30.10826 7.68906 42.48783 -6.98877 -1.56009 -27.14973 -14.07909 -4.94625 -3.69078 28.13577 -0.12619 13.07785 -36.85825 -8.47282 5.41593 3.64163
0.48733 0.06211 0.33309 144.21262 -25.78545 -12.96827 25.25112 3.33897 -25.72022 -7.86946 8.32255 -0.83079 17.55098 -41.43124 11.55016 123.66256 96.6587 -25.32774 -6.06863 52.47345 13.66374 -44.57923 95.13863 -108.32584 -29.88094 7.46925 42.62396 -7.50605 -0.48201 -29.43506 -13.99174 -5.07677 -3.76562 28.38004 0.30459 13.08516 -37.23383 -8.5984 5.48702 3.69008
0.48825 0.06275 0.32941 142.53491 -25.56113 -13.18399 25.48003 3.38127 -25.25956 -7.8556 8.38671 -0.83079 17.04602 -40.76073 11.3961 123.75512 99.12222 -26.52175 -6.33519 52.05486 13.61208 -44.61238 95.38036 -106.27603 -28.59104 7.24687 42.40674 -8.10765 -1.31886 -29.94722 -14.06742 -5.15543 -3.81673 28.41325 0.87047 13.14065 -37.60843 -8.72155 5.52653 3.71974
0.48926 0.06346 0.32533 140.83899 -25.33241 -13.38261 25.65856 3.4119 -24.71924 -7.82104 8.48231 -0.83079 16.55553 -40.02244 11.26569 123.8146 102.80139 -28.39384 -6.7246 51.68735 13.66312 -44.69949 95.61487 -103.68148 -26.98642 7.02648 42.10476 -8.70073 -2.87472 -29.80402 -14.22186 -5.18401 -3.84172 28.40111 1.49134 13.19847 -37.99647 -8.84669 5.55401 3.74261
0.49026 0.06414 0.32138 139.14154 -25.11061 -13.58714 25.86127 3.44545 -24.20688 -7.79391 8.56037 -0.83079 16.07595 -39.31711 11.13978 123.88562 105.72114 -29.84502 -7.0373 51.30858 13.67755 -44.77203 95.84999 -101.47867 -25.61558 6.81595 41.86841 -9.25986 -4.06293 -29.95777 -14.34768 -5.23154 -3.87687 28.41359 2.08361 13.24428 -38.37587 -8.97556 5.58754 3.76922
0.4911 0.0648 0.31761 137.48485 -24.88085 -13.80368 26.0722 3.49184 -23.72587 -7.77506 8.65569 -0.83079 15.51033 -38.59601 10.9457 123.97545 109.45881 -31.73767 -7.43297 50.86837 13.65554 -44.80569 96.10336 -98.68091 -23.86928 6.55729 41.53216 -9.97477 -5.4492 -30.11001 -14.45401 -5.27737 -3.90924 28.42759 2.69633 13.33185 -38.77716 -9.08423 5.61827 3.79287
0.49232 0.06553 0.31338 135.74153 -24.66265 -13.98906 26.24957 3.50756 -23.16557 -7.73359 8.71976 -0.83079 15.13801 -37.89596 10.90234 124.01515 111.82298 -32.89658 -7.68891 50.57415 13.72791 -44.92968 96.31193 -96.97733 -22.82054 6.39951 41.3776 -10.36435 -6.58902 -30.11311 -14.61384 -5.3213 -3.9447 28.42006 3.27772 13.33512 -39.13114 -9.23569 5.65191 3.82104
0.49456 0.06644 0.3081 133.73514 -24.46539 -14.0985 26.33708 3.44235 -22.36202 -7.64083 8.70692 -0.83079 15.2251 -37.24989 11.24994 123.94249 109.84485 -31.71897 -7.50471 50.65164 14.08003 -45.31786 96.42758 -98.55551 -23.85808 6.53049 41.75208 -9.86186 -6.80988 -29.84711 -14.922 -5.37686 -3.9993 28.3706 3.75718 13.09959 -39.35995 -9.5051 5.69873 3.86461
0.4972 0.06741 0.30237 131.64766 -24.28003 -14.17553 26.39235 3.34607 -21.49009 -7.52516 8.65783 -0.83079 15.52186 -36.63228 11.75279 123.81626 106.49089 -29.80788 -7.18025 50.88027 14.51497 -45.78971 96.49199 -101.22844 -25.59231 6.76134 42.30796 -9.03228 -6.7654 -29.45701 -15.2758 -5.43393 -4.05856 28.29741 4.20323 12.78057 -39.53843 -9.8177 5.74847 3.91271
0.49967 0.06834 0.2968 129.61504 -24.09526 -14.26304 26.46643 3.26315 -20.67737 -7.41579 8.61414 -0.83079 15.76777 -36.01537 12.19695 123.70314 103.94115 -28.33249 -6.93677 51.05189 14.88277 -46.20496 96.56067 -103.31813 -26.95398 6.94015 42.77595 -8.35013 -6.87857 -29.13635 -15.59506 -5.48989 -4.11449 28.22821 4.66451 12.50414 -39.73163 -10.11023 5.79563 3.958
0.50209 0.0693 0.2914 127.50395 -23.88577 -14.36807 26.52109 3.18337 -19.74073 -7.32218 8.61931 -0.83079 15.81978 -35.33675 12.58978 123.63866 100.69149 -26.45503 -6.62617 51.17097 15.37904 -46.70087 96.71095 -105.75582 -28.54366 7.14758 43.26902 -7.67205 -6.85978 -28.73945 -15.97761 -5.54566 -4.17464 28.18603 5.12584 12.20878 -39.95638 -10.40405 5.84803 4.00643
0.5047 0.07022 0.28554 125.53959 -23.72997 -14.42898 26.60962 3.08943 -19.04993 -7.19164 8.5125 -0.83079 16.33368 -34.79646 13.12863 123.45765 98.53985 -25.22351 -6.41869 51.44085 15.62568 -47.04752 96.67731 -107.72937 -29.82442 7.31846 43.74804 -6.90882 -7.04477 -28.47821 -16.23546 -5.60279 -4.22725 28.08295 5.58063 11.93217 -40.1077 -10.7062 5.88987 4.04923
